<?xml version="1.0" standalone="no"?>
<!DOCTYPE svg PUBLIC "-//W3C//DTD SVG 20010904//EN"
 "http://www.w3.org/TR/2001/REC-SVG-20010904/DTD/svg10.dtd">
<svg version="1.0" xmlns="http://www.w3.org/2000/svg"
 width="708.000000pt" height="509.000000pt" viewBox="0 0 708.000000 509.000000"
 preserveAspectRatio="xMidYMid meet">
<metadata>
Created by potrace 1.13, written by Peter Selinger 2001-2015
</metadata>
<g transform="translate(0.000000,509.000000) scale(0.100000,-0.100000)"
fill="#000000" stroke="none">
<path d="M0 2545 l0 -2545 3540 0 3540 0 0 2545 0 2545 -3540 0 -3540 0 0
-2545z m3792 2020 c470 -62 902 -281 1228 -622 252 -264 417 -552 514 -898 24
-86 56 -251 56 -287 0 -17 -20 -18 -275 -18 l-275 0 0 25 0 25 250 0 250 0 -5
23 c-3 12 -12 56 -20 97 -160 783 -791 1412 -1577 1574 -706 145 -1417 -79
-1908 -602 -251 -268 -438 -629 -510 -986 -11 -54 -20 -100 -20 -102 0 -2 111
-5 248 -6 l247 -3 3 -22 3 -23 -280 0 c-155 0 -281 3 -281 8 0 35 36 218 60
304 222 801 905 1398 1730 1513 132 18 424 18 562 0z m-1 -151 c426 -61 808
-251 1100 -547 252 -255 414 -536 508 -884 22 -80 25 -103 15 -107 -9 -3 -17
8 -23 32 -5 20 -17 65 -26 100 -61 242 -232 553 -414 757 -459 513 -1145 738
-1827 600 -476 -96 -918 -394 -1189 -800 -118 -177 -218 -391 -260 -557 -35
-136 -35 -137 -49 -132 -28 11 60 288 150 471 371 755 1186 1187 2015 1067z
m-30 -795 c14 -14 18 -27 13 -42 -87 -288 -420 -1318 -430 -1334 -8 -13 -22
-23 -31 -23 -21 0 -53 29 -53 47 0 7 95 311 211 676 231 725 234 732 290 676z
m-633 -241 c7 -7 12 -22 12 -35 0 -19 -45 -53 -252 -191 -139 -93 -259 -177
-267 -186 -32 -38 -6 -62 259 -240 195 -131 256 -176 258 -194 4 -29 -14 -52
-43 -52 -30 0 -534 342 -556 377 -30 49 -33 93 -7 142 20 40 52 64 278 217
249 167 291 189 318 162z m1088 -157 c137 -93 260 -181 273 -195 36 -39 41
-119 9 -166 -27 -42 -521 -378 -555 -379 -26 -1 -53 33 -46 59 3 10 112 90
251 182 135 89 251 169 259 176 7 7 13 26 13 42 0 27 -21 43 -259 204 -142 97
-261 183 -265 192 -3 8 -1 24 4 35 23 41 58 24 316 -150z m-2218 -1003 l-3
-23 -247 -3 c-137 -1 -248 -4 -248 -6 0 -21 46 -214 70 -295 169 -564 609
-1053 1150 -1278 523 -218 1078 -217 1602 1 490 205 896 622 1097 1129 35 87
85 257 101 342 6 33 13 70 16 83 l4 22 -250 0 -250 0 0 25 0 25 275 0 275 0 0
-32 c0 -18 -7 -68 -15 -110 -75 -392 -265 -759 -544 -1050 -134 -140 -215
-208 -366 -308 -200 -132 -434 -233 -670 -290 -288 -69 -667 -67 -965 4 -730
174 -1325 744 -1525 1460 -27 99 -65 283 -65 318 0 4 126 8 281 8 l280 0 -3
-22z m-327 -231 c151 -579 588 -1067 1151 -1285 350 -137 733 -167 1107 -87
702 148 1270 696 1446 1395 15 59 26 86 37 88 15 3 13 -11 -12 -105 -144 -551
-535 -1018 -1054 -1263 -298 -141 -656 -208 -963 -181 -176 15 -319 43 -463
91 -635 208 -1119 725 -1286 1373 -19 76 -20 88 -7 85 11 -2 25 -37 44 -111z
m745 -31 c19 -19 34 -44 34 -55 0 -58 -57 -111 -119 -111 -30 0 -30 0 -33 -62
-3 -53 -6 -63 -22 -66 -18 -4 -19 2 -13 152 3 86 9 161 12 166 3 6 29 10 57
10 44 0 54 -4 84 -34z m974 -123 c0 -87 -4 -164 -9 -172 -5 -8 -16 -11 -26 -7
-16 6 -17 17 -12 113 4 58 7 132 7 165 0 51 2 58 20 58 19 0 20 -7 20 -157z
m381 141 c34 -17 37 -51 4 -46 -85 15 -81 15 -112 -23 -50 -60 -70 -168 -38
-195 19 -16 66 -16 94 0 12 6 28 25 37 42 l16 31 -43 -7 c-78 -13 -84 -12 -84
8 0 25 53 44 123 45 35 1 54 -3 58 -12 8 -23 -49 -120 -85 -144 -42 -28 -109
-31 -140 -5 -45 36 -47 127 -4 219 43 93 104 124 174 87z m147 -74 c2 -47 0
-122 -3 -167 -6 -73 -9 -83 -26 -83 -18 0 -19 9 -19 154 0 166 4 189 29 184
13 -3 17 -19 19 -88z m401 64 c26 -33 26 -60 3 -99 -18 -29 -18 -31 1 -56 10
-15 21 -47 24 -72 4 -36 1 -49 -16 -66 -32 -32 -101 -26 -101 8 0 26 10 31 31
18 15 -9 22 -9 34 3 20 21 4 79 -31 109 l-26 23 26 27 c45 47 23 122 -22 77
-14 -14 -18 -42 -20 -149 -4 -130 -11 -161 -36 -151 -9 3 -11 35 -9 122 5 149
9 174 34 206 28 36 80 36 108 0z m-274 -34 c0 -8 -10 -16 -22 -18 -22 -3 -32
16 -16 32 12 11 38 2 38 -14z m103 -3 c2 -11 -3 -17 -17 -17 -23 0 -35 15 -26
31 10 15 39 6 43 -14z m-1290 -61 c5 -38 -15 -57 -33 -33 -12 17 -16 17 -50 3
-41 -17 -40 -31 3 -39 70 -14 101 -89 52 -129 -43 -35 -150 -15 -150 29 0 12
6 14 33 8 39 -10 85 -10 94 -1 13 13 -14 41 -48 51 -50 15 -59 23 -59 53 0 39
11 50 66 72 66 26 88 23 92 -14z m-227 4 c16 -9 19 -22 19 -85 0 -40 4 -85 10
-100 8 -20 7 -27 -5 -31 -8 -4 -21 -1 -28 4 -8 7 -18 7 -27 2 -29 -18 -80 -11
-105 15 -20 19 -25 34 -25 75 0 57 19 93 59 115 31 17 75 19 102 5z m413 0
c35 -13 38 -56 4 -45 -62 19 -66 18 -87 -16 -40 -65 -14 -129 46 -115 47 12
66 11 70 -1 6 -16 -49 -43 -86 -43 -17 0 -42 11 -60 26 -25 21 -31 33 -31 65
0 44 31 113 57 128 23 13 55 14 87 1z m222 -4 c18 -13 20 -23 16 -71 -3 -33 1
-73 8 -96 15 -45 8 -59 -21 -41 -14 9 -25 9 -39 2 -24 -13 -66 -13 -90 0 -25
14 -44 79 -36 123 14 73 108 121 162 83z m860 -1 c18 -12 20 -22 16 -65 -2
-27 1 -70 8 -95 14 -50 8 -65 -18 -49 -10 6 -26 8 -37 3 -63 -25 -119 3 -131
66 -9 50 2 83 41 122 37 37 85 44 121 18z m402 -1 c48 -33 21 -80 -69 -119
-57 -25 -56 -23 -33 -40 25 -19 75 -19 100 0 27 20 44 18 44 -5 0 -26 -48 -50
-99 -50 -28 0 -48 8 -70 26 -27 23 -31 32 -31 78 0 51 15 86 50 113 21 17 81
16 108 -3z m118 2 c5 -12 9 -12 32 0 43 22 81 18 88 -10 8 -35 1 -60 -19 -64
-12 -3 -17 3 -17 22 0 31 -18 34 -51 7 -20 -16 -25 -31 -29 -93 -4 -59 -8 -73
-22 -76 -16 -3 -18 7 -18 112 0 98 2 116 15 116 9 0 18 -6 21 -14z"/>
<path d="M2310 1890 c0 -65 5 -69 55 -50 14 5 30 22 36 37 9 24 7 31 -16 50
-14 13 -37 23 -51 23 -23 0 -24 -3 -24 -60z"/>
<path d="M2540 1820 c-46 -46 -36 -123 16 -128 43 -4 52 13 46 86 -4 52 -7 62
-23 62 -11 0 -28 -9 -39 -20z"/>
<path d="M3171 1816 c-17 -18 -22 -33 -19 -66 3 -49 22 -66 61 -56 26 6 27 9
27 76 0 67 -1 70 -23 70 -13 0 -34 -11 -46 -24z"/>
<path d="M4030 1813 c-15 -19 -20 -38 -18 -66 3 -46 23 -63 61 -53 26 6 27 9
27 76 0 67 -1 70 -24 70 -15 0 -33 -11 -46 -27z"/>
<path d="M4430 1820 c-11 -11 -20 -27 -20 -35 0 -12 10 -10 50 10 28 14 48 30
45 35 -10 17 -54 11 -75 -10z"/>
</g>
</svg>
