<?xml version="1.0" standalone="no"?>
<!DOCTYPE svg PUBLIC "-//W3C//DTD SVG 20010904//EN"
 "http://www.w3.org/TR/2001/REC-SVG-20010904/DTD/svg10.dtd">
<svg version="1.0" xmlns="http://www.w3.org/2000/svg"
 width="1366.000000pt" height="768.000000pt" viewBox="0 0 1366.000000 768.000000"
 preserveAspectRatio="xMidYMid meet">
<metadata>
Created by potrace 1.13, written by Peter Selinger 2001-2015
</metadata>
<g transform="translate(0.000000,768.000000) scale(0.100000,-0.100000)"
fill="#000000" stroke="none">
<path d="M0 3840 l0 -3840 6830 0 6830 0 0 3840 0 3840 -6830 0 -6830 0 0
-3840z m6975 1175 c69 -14 207 -76 255 -114 l25 -20 -34 -7 c-32 -7 -33 -8
-27 -46 4 -21 2 -47 -4 -57 -8 -16 -15 -18 -47 -10 -41 10 -51 13 -163 34
-153 30 -170 36 -170 55 0 17 -26 30 -62 30 -12 0 -15 -6 -11 -22 3 -13 10
-28 15 -35 6 -8 2 -16 -14 -24 -38 -20 -48 -35 -35 -48 6 -6 16 -11 22 -11 5
0 24 -7 40 -16 32 -17 66 -25 103 -24 15 0 26 -7 29 -19 3 -11 16 -22 29 -25
14 -4 22 -11 19 -15 -9 -15 -67 -6 -80 13 -24 32 -155 57 -155 30 0 -8 -7 -14
-15 -14 -18 0 -20 -16 -4 -26 7 -4 0 -11 -17 -19 -36 -15 -63 -60 -46 -77 23
-23 117 -48 178 -47 70 2 104 -12 105 -44 4 -103 -2 -162 -20 -197 -14 -28
-16 -41 -8 -49 6 -6 14 -11 18 -11 5 0 21 -12 36 -27 22 -20 24 -25 8 -19 -11
4 -33 10 -50 12 -27 4 -28 3 -11 -8 50 -35 66 -51 66 -65 0 -11 -6 -14 -22 -9
-13 3 -28 6 -34 6 -6 0 -14 12 -17 28 -3 15 -12 36 -20 46 -14 19 -16 19 -31
3 -10 -9 -23 -17 -30 -17 -8 0 -19 -6 -25 -14 -15 -18 -62 -27 -94 -18 -15 4
-42 22 -62 40 -32 31 -35 32 -35 12 0 -27 17 -60 43 -83 15 -12 29 -16 54 -11
40 8 41 -1 3 -43 -34 -38 -57 -41 -94 -12 -23 18 -26 27 -26 84 0 99 -15 120
-44 63 -12 -26 -16 -29 -16 -12 0 11 11 31 25 44 14 13 25 29 25 36 0 19 -50
21 -90 5 -50 -22 -70 -41 -91 -86 -10 -22 -19 -34 -19 -27 0 27 -38 9 -82 -40
-32 -35 -48 -47 -48 -36 0 25 56 85 107 115 47 27 50 46 13 88 -24 28 -58 96
-80 164 -10 31 -21 64 -25 74 -6 13 -2 17 16 17 20 0 21 2 9 11 -11 8 -9 9 10
3 51 -14 91 -34 86 -43 -4 -5 9 -18 27 -30 18 -11 48 -36 65 -56 18 -19 36
-35 40 -36 4 0 17 -2 30 -3 12 -2 22 1 22 6 0 4 -3 8 -7 8 -5 0 -19 10 -33 21
-16 13 -19 19 -7 15 9 -3 25 -9 35 -12 11 -4 8 2 -8 15 -14 11 -32 21 -41 21
-8 0 -24 7 -35 15 -17 13 -14 13 25 0 76 -26 93 -17 96 51 1 17 5 43 9 57 6
26 -4 34 -37 28 -4 -1 -17 4 -29 10 -11 6 -23 7 -27 3 -3 -5 -16 -15 -28 -22
-19 -10 -23 -10 -23 3 0 26 -21 16 -33 -15 -12 -31 -27 -34 -64 -10 -25 16
-31 32 -9 24 19 -7 29 12 17 33 -6 10 -11 13 -11 8 0 -6 -9 -16 -21 -23 -12
-8 -18 -9 -14 -3 4 7 -4 11 -19 11 -13 0 -31 7 -39 15 -8 8 -18 11 -22 7 -4
-4 10 27 31 68 86 167 288 308 479 333 70 9 185 6 250 -8z m-750 -416 c4 -6
-3 -21 -15 -34 -18 -19 -20 -27 -11 -38 8 -11 8 -23 -3 -53 -8 -21 -15 -32
-15 -24 -1 13 -2 13 -11 0 -17 -26 -12 7 11 88 21 70 31 83 44 61z m745 1 c0
-5 -2 -10 -4 -10 -3 0 -8 5 -11 10 -3 6 -1 10 4 10 6 0 11 -4 11 -10z m-690
-35 c0 -13 -4 -14 -20 -5 -11 6 -20 13 -20 15 0 3 9 5 20 5 11 0 20 -7 20 -15z
m740 -178 c-21 -46 -50 -64 -50 -29 0 22 14 44 26 40 5 -2 11 2 12 7 10 27 26
49 29 39 2 -6 -6 -31 -17 -57z m475 -147 c3 -5 -1 -10 -10 -10 -9 0 -13 5 -10
10 3 6 8 10 10 10 2 0 7 -4 10 -10z m-481 -73 c3 4 6 1 6 -6 0 -7 5 -9 10 -6
6 3 10 2 10 -4 0 -19 -16 -19 -48 1 -38 24 -41 31 -8 18 13 -5 27 -6 30 -3z
m147 -70 c107 -55 219 -118 223 -125 2 -4 -2 -16 -10 -26 -13 -19 -14 -19 -49
0 -20 10 -60 37 -88 58 -29 22 -79 54 -111 71 -33 17 -61 36 -64 43 -7 21 34
13 99 -21z m-16 -89 l40 -42 -42 33 c-45 34 -60 51 -46 51 5 0 27 -19 48 -42z
m-129 -35 c33 -32 64 -68 71 -80 10 -20 10 -21 -12 -11 -20 9 -30 6 -67 -23
-60 -48 -75 -63 -94 -101 -9 -18 -20 -35 -23 -38 -3 -3 -11 -14 -17 -25 -6
-11 -18 -21 -27 -23 -14 -3 -16 7 -12 77 4 91 14 115 54 136 27 14 29 13 24
-5 -7 -27 1 -25 31 5 14 14 39 28 56 31 16 4 30 10 30 15 0 12 -33 27 -49 21
-8 -3 -11 0 -7 7 4 6 -2 25 -14 41 -34 48 -8 35 56 -27z m85 26 c5 -11 7 -19
3 -19 -11 0 -44 32 -44 41 0 14 30 -2 41 -22z m-2 -156 c-29 -4 -138 -97 -127
-108 3 -4 15 -2 26 4 12 6 30 11 42 11 12 0 18 5 15 10 -3 6 3 10 14 10 12 0
21 -2 21 -5 0 -11 -104 -56 -121 -52 -10 3 -25 -4 -35 -14 -9 -10 -22 -19 -27
-19 -6 0 -1 9 11 20 12 12 22 25 22 31 0 5 24 34 54 64 48 49 59 55 93 54 27
-2 31 -3 12 -6z m-430 -50 c-13 -15 -11 -16 13 -11 26 5 26 4 11 -19 -16 -24
-37 -30 -48 -13 -4 6 -10 8 -15 5 -5 -3 -11 -1 -14 4 -4 5 6 19 21 30 34 25
51 27 32 4z m-1389 -343 l0 -150 -25 0 -25 0 0 150 0 150 25 0 25 0 0 -150z
m100 0 l0 -150 -25 0 -25 0 0 150 0 150 25 0 25 0 0 -150z m600 100 c0 -43 -3
-50 -20 -50 -17 0 -20 7 -20 50 0 43 3 50 20 50 17 0 20 -7 20 -50z m1670
-100 l0 -150 -25 0 -25 0 0 150 0 150 25 0 25 0 0 -150z m470 0 l0 -150 -25 0
-25 0 0 150 0 150 25 0 25 0 0 -150z m410 130 c23 -23 25 -49 8 -96 -11 -31
-10 -35 20 -62 57 -53 31 -122 -45 -122 -46 0 -66 11 -58 33 5 11 15 14 41 10
49 -8 56 19 15 61 -32 33 -40 73 -20 93 6 6 9 21 7 34 -2 18 -9 24 -28 24
l-25 0 -3 -127 -3 -128 -24 0 -25 0 0 127 c0 116 2 129 22 150 28 30 89 32
118 3z m-3740 -50 l0 -60 60 0 60 0 0 60 0 60 30 0 30 0 0 -145 0 -145 -30 0
-30 0 0 65 0 65 -60 0 -60 0 0 -65 c0 -63 -1 -65 -25 -65 l-25 0 0 145 0 145
25 0 c24 0 25 -3 25 -60z m1110 -85 l0 -145 -25 0 -25 0 0 145 0 145 25 0 25
0 0 -145z m759 119 c31 -26 41 -68 25 -109 -10 -25 -58 -45 -109 -45 l-45 0 0
-55 c0 -52 -1 -55 -25 -55 l-25 0 0 145 0 145 74 0 c66 0 78 -3 105 -26z
m1310 11 c16 -8 34 -28 39 -45 10 -27 9 -30 -10 -30 -11 0 -31 11 -44 25 -27
30 -53 32 -84 7 -28 -23 -38 -113 -18 -152 28 -53 118 -49 118 5 0 21 -5 25
-30 25 -23 0 -30 4 -30 20 0 18 7 20 55 20 l55 0 0 -53 c0 -67 -20 -88 -88
-95 -61 -5 -104 15 -126 62 -19 40 -21 109 -5 155 21 61 105 89 168 56z m256
-11 c0 -10 -8 -20 -18 -22 -22 -4 -35 27 -16 39 20 12 34 5 34 -17z m93 3 c4
-20 -25 -34 -40 -19 -15 15 -1 44 19 40 10 -2 19 -11 21 -21z m-3153 -72 c17
-16 25 -35 25 -60 l0 -35 -65 0 c-50 0 -65 -3 -65 -14 0 -36 61 -61 86 -36 11
11 44 3 44 -10 0 -16 -50 -40 -83 -40 -69 0 -116 71 -96 145 20 71 105 99 154
50z m416 -4 c25 -25 29 -37 29 -81 0 -44 -4 -56 -29 -81 -52 -52 -128 -33
-157 38 -45 107 77 203 157 124z m489 20 c0 -5 13 -4 30 2 23 9 38 8 66 -2 26
-9 39 -10 47 -2 18 18 72 13 92 -9 13 -14 19 -42 23 -110 l5 -90 -32 0 -31 0
0 85 c0 70 -3 87 -16 92 -36 14 -49 -10 -52 -96 -3 -78 -4 -81 -27 -81 -23 0
-24 3 -27 81 -2 65 -7 84 -20 93 -13 8 -23 8 -35 0 -14 -9 -19 -28 -21 -93 -3
-79 -4 -81 -27 -81 l-25 0 0 110 0 110 25 0 c14 0 25 -4 25 -9z m808 -11 c19
-18 22 -32 22 -95 0 -40 3 -80 6 -89 5 -12 0 -16 -20 -16 -14 0 -26 5 -26 10
0 7 -6 7 -19 0 -49 -26 -111 2 -111 49 0 43 21 62 74 68 41 5 47 8 44 27 -4
26 -55 36 -64 12 -7 -18 -54 -22 -54 -6 0 6 11 22 25 35 31 32 91 34 123 5z
m216 -1 c14 -11 26 -27 26 -35 0 -19 -46 -18 -54 2 -8 21 -60 15 -64 -8 -2
-12 8 -20 40 -28 52 -14 78 -36 78 -64 -1 -57 -75 -84 -139 -51 -38 19 -48 55
-16 55 12 0 28 -7 35 -16 17 -20 64 -14 68 8 2 12 -7 20 -35 27 -53 15 -83 38
-83 66 0 31 44 65 85 65 18 0 44 -9 59 -21z m214 4 c11 -10 23 -28 27 -40 5
-19 2 -23 -17 -23 -13 0 -29 9 -36 20 -28 45 -77 13 -77 -50 0 -64 43 -91 80
-50 19 21 40 26 49 11 10 -16 -5 -41 -35 -56 -42 -22 -83 -19 -111 10 -69 69
-28 195 62 195 22 0 47 -8 58 -17z m210 -3 c19 -18 22 -32 22 -95 0 -40 3 -80
6 -89 5 -12 0 -16 -20 -16 -14 0 -26 5 -26 10 0 7 -6 7 -19 0 -49 -26 -111 2
-111 49 0 43 21 62 74 68 41 5 47 8 44 27 -4 26 -55 36 -64 12 -7 -18 -54 -22
-54 -6 0 6 11 22 25 35 31 32 91 34 123 5z m790 0 c19 -18 22 -32 22 -95 0
-40 3 -80 6 -89 5 -12 0 -16 -20 -16 -14 0 -26 5 -26 10 0 7 -6 7 -19 0 -49
-26 -111 2 -111 49 0 43 21 62 74 68 41 5 47 8 44 27 -4 26 -55 36 -64 12 -7
-18 -54 -22 -54 -6 0 6 11 22 25 35 31 32 91 34 123 5z m477 -5 c17 -16 25
-35 25 -60 l0 -35 -65 0 c-50 0 -65 -3 -65 -14 0 -36 61 -61 86 -36 11 11 44
3 44 -10 0 -16 -50 -40 -83 -40 -69 0 -116 71 -96 145 20 71 105 99 154 50z
m105 13 c0 -9 3 -9 12 0 7 7 22 12 35 12 18 0 23 -6 23 -25 0 -19 -5 -25 -23
-25 -38 0 -47 -19 -47 -97 0 -71 -1 -73 -25 -73 l-25 0 0 110 0 110 25 0 c14
0 25 -5 25 -12z m-3193 -198 c-6 -44 -22 -70 -43 -70 -11 0 -13 10 -8 43 8 62
11 67 35 67 20 0 21 -4 16 -40z m-177 -300 c0 -29 -4 -40 -15 -40 -11 0 -15
11 -15 40 0 29 4 40 15 40 11 0 15 -11 15 -40z m-60 -85 l0 -115 -25 0 -25 0
0 115 0 115 25 0 25 0 0 -115z m212 44 c10 -6 19 -5 23 1 10 16 62 12 79 -6
12 -11 16 -35 16 -85 0 -62 -2 -69 -20 -69 -18 0 -20 7 -20 64 0 50 -4 65 -16
70 -30 11 -44 -13 -44 -75 0 -52 -2 -59 -20 -59 -18 0 -20 7 -20 59 0 62 -14
86 -44 75 -12 -5 -16 -20 -16 -70 0 -57 -2 -64 -20 -64 -18 0 -20 7 -20 84 l0
84 53 0 c28 0 60 -4 69 -9z m352 -5 c10 -9 16 -33 16 -62 0 -26 3 -57 6 -68 5
-20 2 -21 -53 -22 -59 0 -93 16 -93 45 0 23 39 53 70 53 20 0 30 5 30 15 0 20
-28 31 -43 16 -12 -12 -47 -15 -47 -4 0 3 7 15 17 25 20 22 76 24 97 2z"/>
<path d="M6632 4382 c-10 -7 -7 -13 12 -25 14 -10 32 -17 39 -17 16 0 43 28
35 36 -11 10 -73 15 -86 6z"/>
<path d="M6760 4319 c0 -39 -4 -49 -20 -54 -23 -7 -25 -18 -7 -34 22 -17 51
21 43 55 -5 20 -4 25 7 21 19 -7 83 7 79 17 -2 5 2 12 9 17 17 10 1 16 -63 22
l-48 5 0 -49z"/>
<path d="M6653 4199 c9 -6 15 -14 12 -18 -6 -11 13 -26 52 -39 26 -9 34 -7 47
7 22 24 20 36 -9 49 -34 16 -128 16 -102 1z"/>
<path d="M6970 3884 c-17 -15 -38 -40 -47 -58 -16 -30 -16 -31 3 -17 36 27 94
85 94 93 0 15 -18 8 -50 -18z"/>
<path d="M6530 3500 l0 -50 36 0 c48 0 74 16 74 45 0 35 -26 55 -71 55 l-39 0
0 -50z"/>
<path d="M5072 3468 c-21 -21 -13 -28 28 -28 28 0 40 4 40 14 0 25 -47 35 -68
14z"/>
<path d="M5480 3465 c-7 -9 -13 -33 -13 -55 0 -47 16 -70 49 -70 27 0 44 26
44 70 0 17 -5 40 -10 51 -13 23 -52 25 -70 4z"/>
<path d="M6793 3393 c-16 -6 -17 -39 -2 -48 5 -4 21 -4 35 -1 33 9 35 56 2 55
-13 0 -29 -3 -35 -6z"/>
<path d="M7433 3393 c-16 -6 -17 -39 -2 -48 5 -4 21 -4 35 -1 33 9 35 56 2 55
-13 0 -29 -3 -35 -6z"/>
<path d="M8223 3393 c-16 -6 -17 -39 -2 -48 5 -4 21 -4 35 -1 33 9 35 56 2 55
-13 0 -29 -3 -35 -6z"/>
<path d="M8692 3468 c-21 -21 -13 -28 28 -28 28 0 40 4 40 14 0 25 -47 35 -68
14z"/>
<path d="M5946 2872 c-2 -4 -1 -14 3 -21 11 -18 45 -10 49 12 3 12 -3 17 -22
17 -14 0 -27 -4 -30 -8z"/>
</g>
</svg>
